Coordinates
version=1
nRows=36
nColumns=33
inDegrees=yes

Units are S.I. units (second, meters, Newtons, ...)
Angles are in degrees.

endheader
time	ground_thorax_rot_x	ground_thorax_rot_y	ground_thorax_rot_z	ground_thorax_tx	ground_thorax_ty	ground_thorax_tz	clav_prot_r	clav_elev_r	scapula_abduction_r	scapula_elevation_r	scapula_upward_rot_r	scapula_winging_r	shoulder_elv_r	plane_of_elev_r	axial_rot_r	elbow_flexion_r	pro_sup_r	wrist_flex_r	wrist_dev_r	clav_prot_l	clav_elev_l	scapula_abduction_l	scapula_elevation_l	scapula_upward_rot_l	scapula_winging_l	shoulder_elv_l	plane_of_elev_l	axial_rot_l	elbow_flexion_l	pro_sup_l	wrist_flex_l	wrist_dev_l	
5.0000	2.693731	1.168653	10.882203	-0.115021	1.038606	0.026029	5.444741	12.074199	20.459968	7.529083	23.507556	-11.328157	18.695553	-75.245314	62.389672	56.613287	-23.175257	70.000000	-25.000000	10.827099	-4.510484	-16.089056	-21.304075	-43.546199	-0.789772	61.964605	-39.386788	-3.423616	70.967251	24.567352	0.235246	-25.000000	
5.0100	2.769559	1.232046	10.933211	-0.115317	1.038520	0.026132	5.300287	12.043343	20.352597	7.445719	23.693842	-11.313162	18.548281	-75.265871	62.458647	56.297799	-23.052860	70.000000	-25.000000	10.860396	-4.674686	-16.247731	-21.282885	-43.853453	-0.754537	61.951314	-39.320522	-3.489806	70.581261	24.544186	-0.101818	-25.000000	
5.0200	2.845276	1.305427	10.966210	-0.115634	1.038467	0.026233	5.162570	12.004883	20.262035	7.355291	23.881250	-11.303629	18.398635	-75.263709	62.540982	55.963849	-22.921879	70.000000	-25.000000	10.905327	-4.854260	-16.422690	-21.240756	-44.147719	-0.708543	61.956273	-39.216254	-3.571883	70.187377	24.522711	-0.451937	-25.000000	
5.0300	2.892718	1.367898	11.022697	-0.115919	1.038311	0.026336	5.075871	11.948394	20.180346	7.284773	23.957872	-11.284431	18.321747	-75.230330	62.575173	55.736612	-22.841475	70.000000	-25.000000	10.929053	-4.983003	-16.529100	-21.204905	-44.345176	-0.681791	61.961767	-39.139690	-3.653668	69.869726	24.526246	-0.686007	-24.999999	
5.0400	2.921811	1.435368	11.083338	-0.116187	1.038121	0.026447	5.021310	11.875168	20.104069	7.223124	23.962134	-11.258952	18.293124	-75.160674	62.588389	55.556526	-22.783444	70.000000	-25.000000	10.950117	-5.093134	-16.610306	-21.158711	-44.479361	-0.657397	61.989643	-39.048149	-3.748303	69.586923	24.547289	-0.878009	-24.999999	
5.0500	2.931640	1.508536	11.144008	-0.116425	1.037877	0.026564	4.994194	11.794093	20.032831	7.173453	23.907727	-11.228368	18.310794	-75.061805	62.590332	55.430693	-22.745165	70.000000	-25.000000	10.971011	-5.183789	-16.671856	-21.104546	-44.553982	-0.633710	62.041359	-38.940490	-3.848128	69.358446	24.579424	-1.045132	-24.999998	
5.0600	2.926383	1.598782	11.197202	-0.116628	1.037621	0.026695	4.980209	11.705653	19.949781	7.132499	23.807264	-11.188779	18.372687	-74.931549	62.601583	55.332630	-22.712709	69.999999	-25.000000	11.003794	-5.272175	-16.743655	-21.037847	-44.596804	-0.600615	62.131703	-38.798924	-3.963158	69.153942	24.618565	-1.255670	-24.999997	
5.0700	2.908679	1.705238	11.239385	-0.116781	1.037341	0.026838	4.967794	11.624204	19.853755	7.102746	23.690977	-11.143184	18.468310	-74.787949	62.643220	55.265969	-22.680548	69.999998	-25.000000	11.051671	-5.360242	-16.837195	-20.964498	-44.625485	-0.555808	62.254096	-38.629660	-4.080254	68.988541	24.652233	-1.540815	-24.999995	
5.0800	2.875211	1.838970	11.273346	-0.116872	1.037064	0.027007	4.939340	11.541196	19.691516	7.086416	23.532831	-11.071951	18.648310	-74.609786	62.746471	55.241569	-22.648006	69.999996	-25.000000	11.126428	-5.451934	-16.982269	-20.892687	-44.668001	-0.489911	62.418850	-38.428895	-4.222616	68.838189	24.681324	-2.028533	-24.999991	
5.0900	2.828496	1.984092	11.300570	-0.116892	1.036771	0.027193	4.901720	11.468741	19.494873	7.084618	23.359376	-10.988010	18.889974	-74.421786	62.909958	55.272802	-22.622121	69.999993	-25.000000	11.220969	-5.538873	-17.164784	-20.828286	-44.718936	-0.409246	62.603573	-38.220639	-4.368863	68.725050	24.696504	-2.657228	-24.999983	
5.1000	2.773211	2.132077	11.320091	-0.116847	1.036507	0.027396	4.859683	11.402710	19.279934	7.091510	23.177006	-10.897422	19.180165	-74.226192	63.123515	55.344945	-22.604387	69.999988	-25.000000	11.334280	-5.625404	-17.383696	-20.768287	-44.780707	-0.314164	62.802625	-38.009324	-4.522534	68.627501	24.697766	-3.388205	-24.999970	
5.1100	2.720809	2.259554	11.326691	-0.116752	1.036262	0.027600	4.841083	11.356982	19.135532	7.102165	23.032235	-10.833845	19.453503	-74.064478	63.359383	55.452666	-22.604830	69.999978	-25.000000	11.455168	-5.711043	-17.613659	-20.705884	-44.835882	-0.213033	62.992053	-37.814709	-4.654666	68.566918	24.672304	-4.041435	-24.999947	
5.1200	2.672420	2.363725	11.317289	-0.116614	1.036070	0.027810	4.845644	11.323829	19.061154	7.111031	22.921949	-10.796870	19.709364	-73.925980	63.606588	55.588460	-22.624363	69.999961	-25.000000	11.585243	-5.799456	-17.858129	-20.638632	-44.886861	-0.104019	63.175313	-37.634526	-4.774012	68.527146	24.618415	-4.602755	-24.999905	
5.1300	2.633195	2.432211	11.287521	-0.116444	1.035920	0.028014	4.890958	11.310012	19.111294	7.114116	22.873004	-10.806623	19.900627	-73.832814	63.836390	55.748735	-22.670125	69.999930	-25.000000	11.715607	-5.887428	-18.094790	-20.561004	-44.913597	0.005693	63.339647	-37.479964	-4.860331	68.527437	24.524510	-4.938122	-24.999830	
5.1400	2.600851	2.471514	11.248205	-0.116231	1.035832	0.028220	4.963601	11.304369	19.245254	7.109691	22.863691	-10.847517	20.054766	-73.771058	64.042210	55.932144	-22.749000	69.999874	-25.000000	11.846521	-5.973111	-18.324246	-20.475222	-44.917020	0.115981	63.486125	-37.348396	-4.921410	68.562679	24.378545	-5.078491	-24.999695	
5.1500	2.575276	2.493576	11.193813	-0.115994	1.035790	0.028420	5.064189	11.302235	19.457521	7.097144	22.884218	-10.916812	20.197006	-73.730805	64.240416	56.153262	-22.871282	69.999774	-25.000000	11.987424	-6.059924	-18.563725	-20.378240	-44.898761	0.234939	63.621932	-37.226194	-4.967966	68.646952	24.159366	-5.045699	-24.999454	
5.1600	2.553707	2.521595	11.148781	-0.115740	1.035790	0.028625	5.174103	11.282119	19.674505	7.076625	22.882002	-10.984888	20.443840	-73.704875	64.482838	56.451554	-23.087094	69.999596	-24.999999	12.160883	-6.159965	-18.860581	-20.268930	-44.884105	0.380809	63.745965	-37.109281	-5.015840	68.775174	23.786160	-4.949254	-24.999023	
5.1700	2.532783	2.558976	11.103113	-0.115476	1.035819	0.028820	5.291876	11.242674	19.897368	7.045667	22.861284	-11.052469	20.791273	-73.675120	64.775422	56.814174	-23.387043	69.999276	-24.999999	12.363748	-6.267630	-19.207397	-20.149587	-44.866289	0.551104	63.865659	-36.978240	-5.059261	68.950338	23.257386	-4.783222	-24.998250	
5.1800	2.508051	2.606234	11.072336	-0.115182	1.035872	0.029000	5.403118	11.170843	20.089205	6.999053	22.806182	-11.105282	21.292302	-73.632166	65.157606	57.240936	-23.801435	69.998702	-24.999999	12.590966	-6.368612	-19.597097	-20.036219	-44.850569	0.740885	63.968289	-36.814002	-5.076700	69.152384	22.475857	-4.488686	-24.996864	
5.1900	2.473435	2.658460	11.035606	-0.114859	1.035940	0.029164	5.504138	11.080852	20.264232	6.938633	22.747556	-11.151866	21.870565	-73.543059	65.593451	57.689721	-24.257339	69.997675	-24.999998	12.825128	-6.452482	-19.994544	-19.932283	-44.820847	0.935934	64.082461	-36.597014	-5.072754	69.367271	21.554434	-4.100511	-24.994386	
5.2000	2.431533	2.711875	11.005658	-0.114491	1.036020	0.029323	5.590881	10.977933	20.419239	6.866342	22.693130	-11.192116	22.504079	-73.419726	66.052307	58.153687	-24.738331	69.995835	-24.999996	13.056232	-6.523609	-20.380321	-19.832045	-44.772107	1.128183	64.209861	-36.337831	-5.043923	69.579268	20.536464	-3.625146	-24.989934	
5.2100	2.383875	2.754510	10.967846	-0.114066	1.036113	0.029490	5.663621	10.885756	20.581464	6.788443	22.683978	-11.240082	23.072574	-73.252876	66.436863	58.585417	-25.152939	69.992540	-24.999993	13.258428	-6.584170	-20.701334	-19.723937	-44.679737	1.296818	64.378079	-36.047177	-4.998898	69.783776	19.618185	-3.121532	-24.981997	
5.2200	2.339322	2.784083	10.930968	-0.113586	1.036214	0.029671	5.726321	10.802941	20.756175	6.704743	22.716822	-11.296787	23.592908	-73.066459	66.738988	59.006671	-25.526456	69.986633	-24.999988	13.433057	-6.647933	-20.960941	-19.596830	-44.547792	1.443239	64.578794	-35.732352	-4.936795	69.974099	18.780617	-2.559294	-24.967674	
5.2300	2.313325	2.797466	10.894420	-0.113086	1.036322	0.029868	5.807380	10.728560	20.998281	6.613335	22.792147	-11.380178	24.066162	-72.900581	66.939017	59.439999	-25.892978	69.976066	-24.999979	13.584551	-6.755237	-21.169010	-19.417729	-44.386988	1.572026	64.824316	-35.416567	-4.858425	70.155184	18.015021	-1.849708	-24.942311	
5.2400	2.308835	2.796907	10.865826	-0.112579	1.036423	0.030076	5.913258	10.652410	21.308005	6.511610	22.891442	-11.487710	24.548482	-72.770990	67.076772	59.923842	-26.321339	69.957098	-24.999963	13.728371	-6.914786	-21.355865	-19.181723	-44.206606	1.695884	65.091964	-35.099726	-4.753976	70.319478	17.233302	-0.950867	-24.896060	
5.2500	2.320079	2.779123	10.837653	-0.112055	1.036511	0.030283	6.039661	10.571882	21.677560	6.397783	23.014442	-11.616644	25.039962	-72.657282	67.163480	60.447252	-26.819814	69.923233	-24.999934	13.862516	-7.114834	-21.517187	-18.897648	-44.001618	1.812434	65.374408	-34.767853	-4.613211	70.450512	16.425863	0.148359	-24.815496	
5.2600	2.334495	2.739820	10.799689	-0.111489	1.036571	0.030468	6.171704	10.480508	22.073718	6.269745	23.153207	-11.754863	25.571596	-72.521154	67.251800	61.017121	-27.457007	69.862257	-24.999883	13.982057	-7.312329	-21.641822	-18.598740	-43.756461	1.916142	65.644083	-34.374914	-4.414723	70.515994	15.505687	1.559778	-24.664806	
5.2700	2.347021	2.681056	10.756915	-0.110884	1.036604	0.030627	6.308890	10.380841	22.496366	6.129144	23.309948	-11.902733	26.123347	-72.359043	67.330477	61.616465	-28.202350	69.753910	-24.999790	14.091959	-7.508495	-21.738370	-18.283190	-43.470172	2.010879	65.902448	-33.927142	-4.174023	70.506687	14.516633	3.226575	-24.412675	
5.2800	2.354397	2.604309	10.699226	-0.110236	1.036608	0.030751	6.445295	10.284191	22.943106	5.980841	23.499800	-12.061460	26.649457	-72.162251	67.360641	62.229054	-29.037322	69.557375	-24.999624	14.191489	-7.691272	-21.799709	-17.952191	-43.120371	2.095601	66.139667	-33.411082	-3.901936	70.419381	13.549786	5.113958	-23.925622	
5.2900	2.349129	2.515757	10.633311	-0.109560	1.036588	0.030843	6.574706	10.195292	23.404913	5.827662	23.727824	-12.228596	27.123130	-71.928115	67.306850	62.835547	-29.851212	69.212172	-24.999326	14.296877	-7.873251	-21.856386	-17.596591	-42.714569	2.183920	66.361831	-32.846480	-3.634880	70.255388	12.693772	6.999899	-23.195520	
5.3000	2.340725	2.419022	10.552178	-0.108876	1.036554	0.030888	6.707996	10.112917	23.899983	5.669501	23.990652	-12.409595	27.564711	-71.680302	67.148675	63.458141	-30.681314	68.574703	-24.998793	14.413940	-8.061638	-21.917527	-17.206411	-42.246608	2.280771	66.549255	-32.211422	-3.365982	69.995104	11.894716	8.972796	-22.126964	
5.3100	2.323392	2.319095	10.470251	-0.108216	1.036516	0.030884	6.846747	10.030358	24.425508	5.504091	24.278811	-12.601884	27.989942	-71.425139	66.871421	64.091495	-31.402642	67.486155	-24.997838	14.562799	-8.280348	-22.024789	-16.768578	-41.739156	2.402933	66.706669	-31.530673	-3.116337	69.625328	11.134838	10.883016	-20.785803	
5.3200	2.301495	2.216930	10.375402	-0.107581	1.036473	0.030817	6.990447	9.945328	24.983626	5.328759	24.595421	-12.805817	28.409150	-71.164249	66.462735	64.733825	-32.003763	65.825343	-24.996128	14.742820	-8.523844	-22.175184	-16.282856	-41.180655	2.549677	66.814294	-30.780056	-2.872762	69.112073	10.372100	12.772035	-19.174362	
5.3300	2.254807	2.106939	10.279636	-0.106976	1.036427	0.030678	7.126198	9.848652	25.552306	5.136339	24.941380	-13.012834	28.789092	-70.856638	65.929701	65.325433	-32.363946	63.541917	-24.993062	14.958229	-8.781638	-22.378516	-15.760304	-40.574506	2.724604	66.871833	-29.980359	-2.653256	68.419126	9.633341	14.460686	-17.486055	
5.3400	2.191023	1.988030	10.181663	-0.106401	1.036374	0.030441	7.263621	9.727379	26.144703	4.919049	25.307060	-13.225084	29.143651	-70.498171	65.312496	65.835703	-32.573460	60.678224	-24.987576	15.202058	-9.047024	-22.622428	-15.204033	-39.913533	2.922028	66.860410	-29.110169	-2.444718	67.502608	8.823759	16.107724	-15.777368	
5.3500	2.092340	1.857415	10.101758	-0.105866	1.036315	0.030099	7.399584	9.564921	26.750794	4.666230	25.684066	-13.436310	29.423934	-70.048134	64.652549	66.174646	-32.615080	57.374698	-24.977733	15.477501	-9.320833	-22.916695	-14.618485	-39.209354	3.144620	66.793428	-28.206487	-2.268006	66.349600	7.980930	17.595191	-14.176275	
